<svg xmlns="http://www.w3.org/2000/svg" viewBox="0 0 512 512" xml:space="preserve"><path d="M249.03 10.865 28.063 117.537a8.017 8.017 0 0 0-4.531 7.219v262.485a8.018 8.018 0 0 0 4.531 7.219L249.03 501.135a16.031 16.031 0 0 0 13.94 0l220.967-106.674a8.017 8.017 0 0 0 4.531-7.219V124.757a8.018 8.018 0 0 0-4.531-7.219L262.97 10.865a16.031 16.031 0 0 0-13.94 0z" fill="#ffe17d"/>
    <path d="M24.865 120.368a7.98 7.98 0 0 0-1.333 4.388v262.485a8.017 8.017 0 0 0 4.531 7.219L249.03 501.135a16.027 16.027 0 0 0 6.97 1.595V231.951L24.865 120.368z"
          fill="#ffc350"/>
    <path d="M487.135 120.368a7.98 7.98 0 0 1 1.333 4.388v262.485a8.017 8.017 0 0 1-4.531 7.219L262.97 501.135a16.027 16.027 0 0 1-6.97 1.595V231.951l231.135-111.583z"
          fill="#ffd164"/>
    <path fill="#ff8087" d="M408.807 158.052 176.86 46l-61.142 29.636 232.467 112.227z"/>
    <path d="M348.185 187.863v86.94c0 2.955 3.089 4.894 5.751 3.609l50.34-24.302a8.015 8.015 0 0 0 4.531-7.219v-88.839l-60.622 29.811z"
          fill="#e6646e"/>
    <path d="M491.729 112.97 259.261.746a7.503 7.503 0 0 0-6.521 0L20.271 112.97a7.5 7.5 0 0 0-4.239 6.754v272.549a7.5 7.5 0 0 0 4.239 6.754l232.468 112.226a7.504 7.504 0 0 0 6.522 0l232.468-112.226a7.5 7.5 0 0 0 4.239-6.754V119.725a7.503 7.503 0 0 0-4.239-6.755zM256 15.828l215.217 103.897-62.387 30.118a7.434 7.434 0 0 0-1.27-.8L193.805 45.853 256 15.828zm-79.133 38.505 214.904 103.746-44.015 21.249L132.941 75.623l43.926-21.29zm178.819 137.823 41.113-19.848v78.546l-41.113 19.848v-78.546zM263.5 492.551V236.658l51.873-25.042a7.5 7.5 0 1 0-6.522-13.508L256 223.623l-20.796-10.04c-3.731-1.803-8.214-.237-10.015 3.493s-.237 8.214 3.493 10.015l19.818 9.567V492.55L31.032 387.566V131.673l165.6 79.945a7.463 7.463 0 0 0 3.255.748 7.5 7.5 0 0 0 3.266-14.256l-162.37-78.386 74.505-35.968L340.582 192.52c.033.046.07.087.104.132v89.999a7.502 7.502 0 0 0 10.761 6.754l56.113-27.089a7.499 7.499 0 0 0 4.239-6.754v-90.495l69.169-33.392v255.893L263.5 492.551z"/>
    <path d="m92.926 358.48-34.115-16.469a7.5 7.5 0 0 0-6.522 13.508l34.115 16.469a7.463 7.463 0 0 0 3.255.748 7.5 7.5 0 0 0 6.759-4.241 7.499 7.499 0 0 0-3.492-10.015zM124.323 338.042l-65.465-31.604a7.501 7.501 0 0 0-6.521 13.509l65.465 31.604a7.477 7.477 0 0 0 3.255.748 7.5 7.5 0 0 0 3.266-14.257z"/></svg>