<svg width="100%" height="100%" viewBox="0 0 13 12" version="1.1"
     xml:space="preserve" style="fill-rule:evenodd;clip-rule:evenodd;stroke-linecap:round;stroke-linejoin:round;">
    <g>
        <g>
            <path d="M11.655,9.152c-0.341,1.061 -1.296,1.723 -2.421,1.723c-1.147,-0 -2.072,-0.609 -2.396,-1.563"
                style="fill:none;fill-rule:nonzero;stroke:#ccc;stroke-width:0.7px;" />
            <path d="M6.51,7.387c0.295,-1.152 1.287,-1.88 2.466,-1.88c1.148,0 2.073,0.609 2.396,1.564"
                style="fill:none;fill-rule:nonzero;stroke:#ccc;stroke-width:0.7px;" />
            <path d="M7.792,9.443l-1.042,-0.26l-0.261,1.042"
                style="fill:none;fill-rule:nonzero;stroke:#ccc;stroke-width:0.7px;" />
            <path d="M10.426,6.953l1.043,0.261l0.26,-1.043"
                style="fill:none;fill-rule:nonzero;stroke:#ccc;stroke-width:0.7px;" />
        </g>
        <path
            d="M10.344,4.298c-0.004,-0.001 -0.008,-0.001 -0.013,-0.001c-0.067,-0 -0.128,-0.04 -0.156,-0.101c-0,-0.001 -0,-0.001 -0.001,-0.001c-0.348,-0.735 -1.098,-1.248 -1.959,-1.248c-0.168,0 -0.335,0.02 -0.499,0.059l-0.684,0.186c-0.23,0.062 -0.467,-0.073 -0.529,-0.303c-0.063,-0.229 0.073,-0.466 0.302,-0.529c-0.004,0.001 0.19,-0.051 0.19,-0.051c0.012,-0.003 0.022,-0.011 0.029,-0.022c0.009,-0.014 0.01,-0.033 0.003,-0.048c-0.398,-0.827 -1.244,-1.377 -2.187,-1.377c-1.331,-0 -2.426,1.095 -2.426,2.425l0.017,0.287c0.012,0.09 0.06,0.342 0.179,0.532c0.126,0.201 0.065,0.467 -0.137,0.593c-0.202,0.127 -0.468,0.065 -0.594,-0.136c-0.061,-0.098 -0.112,-0.207 -0.153,-0.314c-0.006,-0.014 -0.017,-0.024 -0.031,-0.029c-0.014,-0.005 -0.029,-0.003 -0.042,0.005c-0.48,0.293 -0.791,0.822 -0.791,1.407c-0,0.902 0.741,1.645 1.643,1.647l2.563,0c0.007,0 0.013,0.003 0.018,0.007c0.005,0.005 0.007,0.011 0.007,0.018c0,0 0,0.425 0,0.425c0,0.109 -0.043,0.214 -0.12,0.291c-0.077,0.078 -0.182,0.121 -0.292,0.121l-2.178,0c-1.374,-0.004 -2.503,-1.135 -2.503,-2.509c0,-1.013 0.613,-1.917 1.522,-2.307c0.018,-0.008 0.03,-0.026 0.03,-0.046c0.005,-1.8 1.487,-3.279 3.288,-3.279c1.353,0 2.559,0.835 3.052,2.067c0.008,0.02 0.029,0.033 0.051,0.031c0.09,-0.008 0.181,-0.013 0.272,-0.013c1.072,0 2.022,0.57 2.588,1.405l0.001,0.001c0.094,0.167 0.093,0.372 -0.004,0.538c-0.095,0.163 -0.268,0.265 -0.456,0.269Zm0.035,0.035c0.001,0.001 0.001,0.002 0.001,0.003c0.001,0.002 0.001,0.004 0.001,0.006c-0,-0.003 -0.001,-0.006 -0.002,-0.009Z"
            style="fill:#ccc;" />
    </g>
</svg>