<?xml version="1.0" encoding="utf-8"?>
<svg viewBox="0 0 500 500" xmlns="http://www.w3.org/2000/svg">
    <g xmlns="http://www.w3.org/2000/svg" fill="#20bf6b"
       transform="matrix(0.896095, 0, 0, 0.896095, 23.114412, 36.801777)" style="">
        <g xmlns="http://www.w3.org/2000/svg" fill="#20bf6b"
           transform="matrix(1.028574, 0, 0, 1.028574, -12.148045, -23.112774)" style="">
            <path d="M 113.085 485.83 C 106.718 485.838 100.61 483.309 96.114 478.801 L 32.114 414.801 C 19.05 401.737 25.026 379.43 42.872 374.648 C 44.898 374.105 46.987 373.83 49.085 373.83 L 369.085 373.83 C 424.511 373.83 459.152 313.83 431.439 265.83 C 418.577 243.553 394.808 229.83 369.085 229.83 L 145.085 229.83 C 126.61 229.83 115.063 209.83 124.3 193.83 C 128.588 186.404 136.511 181.83 145.085 181.83 L 369.085 181.83 C 461.461 181.83 519.196 281.83 473.008 361.83 C 451.572 398.958 411.957 421.83 369.085 421.83 L 107.026 421.83 L 130.056 444.859 C 143.12 457.923 137.144 480.23 119.298 485.012 C 117.272 485.555 115.183 485.83 113.085 485.83 Z"
                  data-original="#000000" style="paint-order: stroke; fill-rule: nonzero; fill: rgb(42, 172, 85);"/>
            <path d="M 369.085 326.915 L 145.085 326.915 C 52.709 326.915 -5.026 226.915 41.162 146.915 C 62.598 109.787 102.213 86.915 145.085 86.915 L 407.785 86.915 L 384.985 63.751 C 372.229 50.386 378.725 28.224 396.677 23.86 C 404.751 21.897 413.265 24.25 419.185 30.079 L 482.185 94.079 C 495.145 107.246 488.992 129.505 471.109 134.146 C 469.142 134.656 467.118 134.915 465.085 134.915 L 145.085 134.915 C 89.659 134.915 55.018 194.915 82.731 242.915 C 95.593 265.192 119.362 278.915 145.085 278.915 L 369.085 278.915 C 387.56 278.915 399.107 298.915 389.87 314.915 C 385.582 322.341 377.659 326.915 369.085 326.915 Z"
                  data-original="#000000" style="paint-order: stroke; fill: rgb(63, 179, 43);"/>
            <circle style="paint-order: stroke; fill: rgb(42, 172, 85);" cx="227.47" cy="462.083" r="23.747"/>
            <circle style="paint-order: stroke; fill: rgb(42, 172, 85);" cx="288.471" cy="462.083" r="23.747"/>
        </g>
    </g>
</svg>