<svg xmlns="http://www.w3.org/2000/svg" viewBox="0 0 512 512"><g xmlns="http://www.w3.org/2000/svg" fill="#20bf6b"><path d="M112 488a23.926 23.926 0 0 1-16.971-7.029l-64-64A24 24 0 0 1 48 376h320a72 72 0 0 0 0-144H144a24 24 0 0 1 0-48h224a120 120 0 0 1 0 240H105.941l23.03 23.029A24 24 0 0 1 112 488z" data-original="#000000"/><path d="M368 328H144a120 120 0 0 1 0-240h262.7l-22.8-23.164a24 24 0 0 1 34.2-33.672l63 64A24 24 0 0 1 464 136H144a72 72 0 0 0 0 144h224a24 24 0 0 1 0 48z" data-original="#000000"/></g></svg>