<svg xmlns="http://www.w3.org/2000/svg" width="512" height="512">
  <g xmlns="http://www.w3.org/2000/svg">
    <path d="M112 488a23.926 23.926 0 01-16.971-7.029l-64-64A24 24 0 0148 376h320a72 72 0 000-144H144a24 24 0 010-48h224a120 120 0 010 240H105.941l23.03 23.029A24 24 0 01112 488z" fill="#20bf6b" data-original="#000000"/>
    <path d="M368 328H144a120 120 0 010-240h262.7l-22.8-23.164a24 24 0 0134.2-33.672l63 64A24 24 0 01464 136H144a72 72 0 000 144h224a24 24 0 010 48z" fill="#20bf6b" data-original="#000000"/>
  </g>
</svg>
