<svg xmlns="http://www.w3.org/2000/svg" viewBox="0 -39 511.99995 511">
  <defs/>
  <path fill="#ffc66c" d="M184.871094 151.335938C126.480469 167.445312 83.597656 220.929688 83.597656 284.4375s42.882813 116.996094 101.273438 133.101562c58.386718-16.105468 101.269531-69.59375 101.269531-133.101562s-42.882813-116.992188-101.269531-133.101562zm0 0"/>
  <path fill="#fff" d="M315.433594 320.105469c-19.128906-71.394531 21.351562-144.714844 90.933594-167.125-24.488282-7.9375-51.472657-9.132813-78.191407-1.972657-73.652343 19.734376-117.363281 95.441407-97.628906 169.097657 19.738281 73.652343 95.441406 117.363281 169.097656 97.628906 2.261719-.605469 4.492188-1.265625 6.695313-1.976563-43.019532-13.945312-78.328125-48.71875-90.90625-95.652343zm0 0"/>
  <path fill="#ffb954" d="M497.273438 248.636719c-12.578126-46.9375-47.886719-81.707031-90.90625-95.65625-69.582032 22.410156-110.0625 95.730469-90.933594 167.125 12.578125 46.933593 47.886718 81.707031 90.90625 95.652343 69.582031-22.40625 110.0625-95.730468 90.933594-167.121093zm0 0"/>
  <path d="M110.902344 258.835938c0-2.632813-1.070313-5.214844-2.929688-7.074219-1.863281-1.859375-4.433594-2.929688-7.074218-2.929688-2.632813 0-5.210938 1.070313-7.074219 2.929688-1.859375 1.859375-2.929688 4.441406-2.929688 7.074219 0 2.640624 1.070313 5.210937 2.929688 7.082031 1.863281 1.863281 4.441406 2.921875 7.074219 2.921875 2.632812 0 5.210937-1.058594 7.074218-2.921875 1.859375-1.871094 2.929688-4.441407 2.929688-7.082031zm0 0M195.242188 248.832031c-2.628907 0-5.210938 1.070313-7.074219 2.929688-1.859375 1.859375-2.929688 4.441406-2.929688 7.074219 0 2.640624 1.070313 5.210937 2.929688 7.082031 1.863281 1.863281 4.445312 2.921875 7.074219 2.921875 2.632812 0 5.214843-1.058594 7.074218-2.921875 1.859375-1.871094 2.933594-4.453125 2.933594-7.082031 0-2.632813-1.074219-5.214844-2.933594-7.074219-1.859375-1.859375-4.441406-2.929688-7.074218-2.929688zm0 0M183.964844 306.699219c-5.335938-1.429688-10.820313 1.746093-12.246094 7.082031-2.859375 10.703125-12.582031 18.179688-23.644531 18.179688-11.066407 0-20.789063-7.476563-23.648438-18.179688-1.425781-5.335938-6.910156-8.511719-12.246093-7.082031-5.339844 1.425781-8.511719 6.910156-7.085938 12.25 5.195312 19.441406 22.867188 33.019531 42.980469 33.019531 20.109375 0 37.78125-13.578125 42.976562-33.019531 1.425781-5.339844-1.746093-10.824219-7.085937-12.25zm0 0M256.121094 84.023438c5.527344 0 10.003906-4.480469 10.003906-10.003907V10.503906C266.125 4.980469 261.648438.5 256.121094.5s-10.003906 4.480469-10.003906 10.003906v63.515625c0 5.523438 4.476562 10.003907 10.003906 10.003907zm0 0M256.125 99.367188c-2.640625 0-5.214844 1.0625-7.085938 2.933593-1.859374 1.859375-2.917968 4.441407-2.917968 7.074219 0 2.628906 1.058594 5.210938 2.917968 7.070312 1.871094 1.863282 4.445313 2.933594 7.085938 2.933594 2.628906 0 5.210938-1.070312 7.074219-2.933594 1.859375-1.859374 2.929687-4.441406 2.929687-7.070312 0-2.632812-1.070312-5.214844-2.929687-7.074219-1.863281-1.871093-4.445313-2.933593-7.074219-2.933593zm0 0M181.007812 105.609375c1.953126 1.953125 4.515626 2.929687 7.074219 2.929687 2.5625 0 5.125-.980468 7.078125-2.933593 3.902344-3.910157 3.902344-10.246094-.007812-14.148438l-25.542969-25.523437c-3.90625-3.902344-10.242187-3.902344-14.148437.007812-3.90625 3.910156-3.902344 10.242188.007812 14.148438zm0 0M322.574219 110.21875c2.5625 0 5.121093-.976562 7.078125-2.929688l27.152344-27.179687c3.90625-3.910156 3.90625-10.242187-.003907-14.148437-3.910156-3.90625-10.242187-3.902344-14.148437.003906l-27.15625 27.179687c-3.90625 3.90625-3.902344 10.242188.007812 14.148438 1.949219 1.953125 4.511719 2.925781 7.070313 2.925781zm0 0"/>
  <path d="M506.9375 246.042969c-21.132812-78.863281-102.484375-125.835938-181.351562-104.699219-27.066407 7.25-50.980469 21.671875-69.65625 41.640625-27.949219-29.761719-66.625-46.617187-107.855469-46.617187C66.425781 136.367188 0 202.789062 0 284.4375s66.425781 148.074219 148.074219 148.074219c41.269531 0 80.007812-16.910157 107.964843-46.746094 27.679688 29.351563 66.71875 46.691406 107.90625 46.691406 12.648438 0 25.503907-1.636719 38.289063-5.0625 78.867187-21.128906 125.835937-102.484375 104.703125-181.351562zM148.074219 412.5c-70.617188 0-128.0625-57.449219-128.0625-128.0625s57.445312-128.0625 128.0625-128.0625c36.554687 0 70.789062 15.320312 95.085937 42.28125-2.652344 3.753906-5.15625 7.644531-7.484375 11.675781-19.773437 34.253907-25.027343 74.15625-14.789062 112.359375 4.695312 17.535156 12.371093 33.488282 22.328125 47.46875-24.300782 27-58.574219 42.339844-95.140625 42.339844zm248.980469-4.429688c-68.207032 18.269532-138.566407-22.347656-156.84375-90.554687-8.851563-33.042969-4.308594-67.554687 12.792968-97.175781 3.15625-5.46875 6.671875-10.644532 10.511719-15.511719.167969-.191406.320313-.386719.46875-.589844 16.933594-21.203125 40.082031-36.414062 66.78125-43.566406 11.0625-2.964844 22.171875-4.378906 33.117187-4.378906 56.535157 0 108.414063 37.785156 123.726563 94.929687 18.277344 68.210938-22.347656 138.570313-90.554687 156.847656zm0 0"/>
  <path d="M334.605469 264.753906c-3.097657-11.558594-15.015625-18.445312-26.578125-15.34375-11.554688 3.097656-18.441406 15.019532-15.34375 26.574219 1.199218 4.472656 5.242187 7.417969 9.660156 7.417969.855469 0 1.726562-.109375 2.59375-.34375 5.339844-1.429688 8.503906-6.914063 7.074219-12.25-.242188-.902344.296875-1.832032 1.195312-2.074219.558594-.148437 1.007813.011719 1.28125.171875.277344.160156.640625.46875.789063 1.023438 1.429687 5.339843 6.914062 8.507812 12.253906 7.078124 5.335938-1.429687 8.503906-6.917968 7.074219-12.253906zm0 0M415.058594 227.3125c-5.019532-2.898438-10.871094-3.667969-16.46875-2.167969-5.597656 1.5-10.277344 5.089844-13.175782 10.109375-2.898437 5.019532-3.667968 10.867188-2.167968 16.464844 1.199218 4.472656 5.242187 7.417969 9.660156 7.417969.855469 0 1.726562-.109375 2.59375-.34375 5.335938-1.429688 8.503906-6.914063 7.074219-12.253907-.148438-.558593.011719-1.003906.171875-1.28125.160156-.277343.464844-.636718 1.023437-.785156.558594-.152344 1.007813.007813 1.285157.167969.273437.160156.636718.464844.785156 1.023437 1.429687 5.339844 6.914062 8.507813 12.253906 7.074219 5.339844-1.429687 8.503906-6.914062 7.074219-12.25-1.5-5.601562-5.089844-10.277343-10.109375-13.175781zm0 0M404.148438 296.191406c-5.335938 1.429688-8.503907 6.914063-7.074219 12.25 3.40625 12.707032-4.160157 25.8125-16.867188 29.21875-6.15625 1.648438-12.582031.800782-18.101562-2.382812-5.515625-3.1875-9.464844-8.332032-11.113281-14.484375-1.429688-5.339844-6.917969-8.507813-12.253907-7.074219-5.335937 1.429688-8.503906 6.914062-7.074219 12.25 3.03125 11.320312 10.289063 20.777344 20.4375 26.636719 6.757813 3.902343 14.261719 5.894531 21.859376 5.894531 3.8125 0 7.648437-.5 11.425781-1.511719C408.75 350.726562 422.664062 326.625 416.40625 303.265625c-1.433594-5.335937-6.917969-8.507813-12.257812-7.074219zm0 0"/>
</svg>