<svg xmlns="http://www.w3.org/2000/svg" viewBox="0 -23 512.00044 512">
    <defs/>
    <path fill="#fcc69d"
          d="M371.667969 323.859375l-119.871094 59.058594c16.507813 12.960937 37.296875 19.207031 58.214844 17.496093l3.171875-.261718 54.863281 54.863281 72.53125-62.546875zm0 0M439.289062 142.699219c1.261719-1.261719 2.386719-2.609375 3.390626-4.015625-1.101563-1.777344-2.414063-3.457032-3.953126-4.996094-10.8125-10.8125-28.34375-10.8125-39.15625 0l9.789063-9.789062c10.8125-10.8125 10.8125-28.34375 0-39.15625-10.816406-10.816407-28.347656-10.816407-39.160156 0l9.789062-9.792969c10.8125-10.8125 10.8125-28.34375 0-39.15625s-28.34375-10.8125-39.15625 0l-71.195312 71.195312-154.332031 163.214844-91.09375 91.089844 91.253906 42.738281L217.46875 301.648438c41.929688-1.519532 81.730469-18.859376 111.398438-48.527344zm0 0"/>
    <path fill="#fcc69d"
          d="M154.460938 231.042969L127.4375 204.019531c-10.8125-10.816406-28.34375-10.816406-39.160156 0-10.8125 10.8125-10.8125 28.34375 0 39.15625l27.027344 27.027344c10.8125 10.8125 28.34375 10.8125 39.15625 0 10.816406-10.8125 10.816406-28.347656 0-39.160156zm0 0"/>
    <path fill="#fcc69d"
          d="M193.621094 191.886719l-40.464844-40.464844c-10.8125-10.8125-28.34375-10.8125-39.15625 0-10.8125 10.816406-10.8125 28.347656 0 39.160156l40.460938 40.460938c10.816406 10.8125 28.347656 10.8125 39.160156 0s10.8125-28.34375 0-39.15625zm0 0"/>
    <path fill="#fff"
          d="M232.777344 152.726562l-50.25-50.25c-10.8125-10.8125-28.34375-10.8125-39.15625 0-3.480469 3.480469-5.835938 7.65625-7.074219 12.078126 9.320313-2.613282 19.742187-.257813 27.078125 7.074218l50.253906 50.25c7.332032 7.335938 9.683594 17.757813 7.070313 27.078125 4.425781-1.238281 8.601562-3.59375 12.082031-7.070312 10.8125-10.8125 10.8125-28.347657-.003906-39.160157zm0 0"/>
    <path fill="#fcc69d"
          d="M213.625 171.878906l-50.25-50.25c-7.335938-7.332031-17.757812-9.6875-27.078125-7.074218-2.617187 9.324218-.261719 19.746093 7.070313 27.078124l50.253906 50.253907c7.332031 7.332031 17.753906 9.683593 27.078125 7.070312 2.613281-9.320312.261719-19.742187-7.074219-27.078125zm0 0"/>
    <path fill="#fff"
          d="M271.9375 113.570312l-60.042969-60.042968c-10.8125-10.8125-28.34375-10.8125-39.15625 0s-10.8125 28.347656 0 39.160156l60.039063 60.039062c10.816406 10.8125 28.347656 10.8125 39.160156 0s10.8125-28.34375 0-39.15625zm0 0"/>
    <path d="M509.042969 332.402344l-24.410157-24.210938c-3.921874-3.890625-10.253906-3.863281-14.144531.058594s-3.863281 10.253906.058594 14.144531l24.40625 24.210938c1.953125 1.933593 4.5 2.898437 7.042969 2.898437 2.574218 0 5.148437-.984375 7.101562-2.957031 3.890625-3.921875 3.867188-10.253906-.054687-14.144531zm0 0M445.617188 283.421875l-.015626.015625c-3.90625 3.90625-3.898437 10.230469.007813 14.136719 1.949219 1.953125 4.507813 2.925781 7.066406 2.925781 2.566407 0 5.128907-.980469 7.085938-2.933594 3.90625-3.90625 3.90625-10.238281 0-14.144531s-10.238281-3.90625-14.144531 0zm0 0"/>
    <path d="M320.257812 393.082031c-2.078124-2.078125-4.964843-3.136719-7.890624-2.898437l-3.171876.261718c-14.636718 1.199219-29.101562-2.007812-41.734374-9.085937l6.425781-6.449219c38.007812-2.34375 73.597656-18.363281 100.605469-45.371094l97.027343-97.027343c14.695313-14.695313 14.695313-38.605469 0-53.304688-5.179687-5.179687-11.511719-8.527343-18.175781-10.054687 2.285156-4.914063 3.496094-10.304688 3.496094-15.886719 0-10.066406-3.921875-19.53125-11.039063-26.652344-5.585937-5.582031-12.613281-9.1875-20.242187-10.488281 4.292968-13.085938 1.257812-28.074219-9.128906-38.457031-5.710938-5.710938-12.8125-9.191407-20.226563-10.464844 1.242187-3.769531 1.898437-7.75 1.898437-11.832031 0-10.066406-3.921874-19.53125-11.039062-26.652344-7.121094-7.117188-16.585938-11.039062-26.652344-11.039062-6.394531 0-12.539062 1.585937-18 4.566406l-.964844-1.039063C328.902344 7.730469 311.148438 0 292.738281 0h-78.539062c-5.523438 0-10.003907 4.480469-10.003907 10.003906v13.113282c0 5.25.890626 10.359374 2.585938 15.164062-4.523438-1.878906-9.417969-2.863281-14.464844-2.863281-10.066406 0-19.53125 3.917969-26.652344 11.039062-10.390624 10.390625-13.421874 25.386719-9.117187 38.480469-7.421875 1.265625-14.53125 4.75-20.25 10.464844-7.117187 7.117187-11.039063 16.582031-11.039063 26.652344 0 4.074218.652344 8.046874 1.890626 11.808593-7.621094 1.304688-14.640626 4.90625-20.21875 10.488281-11.476563 11.476563-13.988282 28.574219-7.539063 42.515626-6.832031 1.558593-13.105469 5-18.183594 10.078124-14.695312 14.695313-14.695312 38.605469 0 53.300782l19.953125 19.953125-98.230468 98.234375c-3.90625 3.90625-3.90625 10.238281 0 14.144531C4.882812 384.53125 7.441406 385.507812 10 385.507812c2.5625 0 5.121094-.976562 7.074219-2.929687l99.183593-99.183594c5.613282 3.207031 11.984376 4.917969 18.625 4.917969 10.066407 0 19.53125-3.917969 26.652344-11.039062 7.734375-7.734376 11.390625-18.019532 10.984375-28.171876.507813.019532 1.015625.035157 1.523438.035157 9.648437 0 19.304687-3.675781 26.648437-11.019531 7.121094-7.121094 11.039063-16.585938 11.039063-26.652344 0-.507813-.015625-1.015625-.035157-1.519532.5.019532 1 .035157 1.503907.035157 9.652343 0 19.304687-3.675781 26.652343-11.023438 7.117188-7.117187 11.039063-16.582031 11.039063-26.648437 0-.511719-.019531-1.015625-.039063-1.523438.5.019532 1.003907.035156 1.503907.035156 9.652343 0 19.304687-3.671874 26.652343-11.019531 13.808594-13.808593 14.640626-35.75 2.5-50.542969l66.394532-66.390624c3.339844-3.34375 7.78125-5.183594 12.507812-5.183594 4.722656 0 9.164063 1.839844 12.503906 5.183594 3.34375 3.339843 5.183594 7.78125 5.183594 12.503906 0 4.726562-1.839844 9.167968-5.183594 12.507812l-45.304687 45.304688c-3.90625 3.90625-3.90625 10.242187 0 14.148437 1.953125 1.953125 4.511719 2.929688 7.070313 2.929688 2.558593 0 5.121093-.976563 7.074218-2.929688L377.269531 91.8125c6.898438-6.894531 18.117188-6.898438 25.015625 0 6.894532 6.898438 6.894532 18.117188 0 25.011719l-35.519531 35.519531c-3.90625 3.90625-3.90625 10.238281 0 14.144531 1.953125 1.953125 4.511719 2.929688 7.074219 2.929688 2.558594 0 5.117187-.976563 7.070312-2.929688l25.726563-25.726562c3.34375-3.34375 7.785156-5.179688 12.507812-5.179688 4.726563 0 9.167969 1.835938 12.507813 5.179688 3.339844 3.339843 5.179687 7.78125 5.179687 12.507812 0 4.722657-1.839843 9.164063-5.179687 12.503907l-25.730469 25.730468c-3.90625 3.902344-3.90625 10.238282 0 14.144532 1.953125 1.953124 4.515625 2.929687 7.074219 2.929687 2.558594 0 5.117187-.976563 7.070312-2.929687l12.300782-12.300782c6.898437-6.886718 18.113281-6.882812 25.003906.007813 6.898437 6.898437 6.898437 18.117187 0 25.015625l-97.027344 97.027344c-24.363281 24.363281-56.746094 38.46875-91.175781 39.71875-2.53125.089843-4.9375 1.140624-6.722657 2.9375L172.8125 448.019531c-3.898438 3.910157-3.890625 10.246094.023438 14.144531 1.953124 1.941407 4.507812 2.914063 7.0625 2.914063 2.5625 0 5.128906-.980469 7.082031-2.941406l65.929687-66.171875c16.746094 10.746094 36.4375 15.851562 56.464844 14.527344l51.597656 51.601562c1.953125 1.953125 4.511719 2.929688 7.070313 2.929688 2.558593 0 5.121093-.976563 7.074219-2.929688 3.90625-3.90625 3.90625-10.238281 0-14.148438zM224.199219 20.003906h68.539062c12.875 0 25.289063 5.40625 34.0625 14.832032l.40625.4375-59.710937 59.710937-27.472656-27.472656c3.113281.664062 6.316406 1.019531 9.578124 1.015625h.21875l27.449219-.128906C282.792969 68.375 287.25 63.875 287.222656 58.351562c-.023437-5.507812-4.496094-9.957031-10-9.957031h-.046875l-27.449219.128907h-.125c-6.761718 0-13.121093-2.625-17.917968-7.398438-4.828125-4.804688-7.484375-11.195312-7.484375-18.007812zm-76.808594 243.125c-3.339844 3.34375-7.78125 5.183594-12.507813 5.183594-4.722656 0-9.164062-1.839844-12.503906-5.183594l-27.027344-27.023437c-6.898437-6.898438-6.898437-18.117188 0-25.015625 3.339844-3.339844 7.78125-5.179688 12.507813-5.179688 4.722656 0 9.164063 1.839844 12.503906 5.179688l27.027344 27.027344c6.894531 6.894531 6.894531 18.117187 0 25.011718zm44.339844-51.664062c0 4.722656-1.839844 9.167968-5.183594 12.507812-6.894531 6.894532-18.117187 6.894532-25.011719 0l-40.464844-40.464844c-6.894531-6.894531-6.894531-18.117187 0-25.011718 3.339844-3.34375 7.785157-5.183594 12.507813-5.183594 4.722656 0 9.164063 1.839844 12.507813 5.183594l40.460937 40.460937c3.34375 3.34375 5.183594 7.785157 5.183594 12.507813zm39.15625-39.15625c0 4.722656-1.839844 9.164062-5.179688 12.503906-6.898437 6.898438-18.121093 6.898438-25.015625 0l-50.25-50.25c-3.34375-3.34375-5.179687-7.78125-5.179687-12.507812 0-4.722657 1.835937-9.164063 5.179687-12.507813 3.445313-3.445313 7.976563-5.171875 12.503906-5.171875 4.527344 0 9.050782 1.722656 12.5 5.164062l50.261719 50.261719c3.339844 3.339844 5.179688 7.78125 5.179688 12.507813zm33.976562-26.652344c-6.894531 6.894531-18.117187 6.894531-25.011719 0l-50.253906-50.253906c-.003906-.003906-.011718-.007813-.015625-.015625l-9.773437-9.773438c-6.894532-6.898437-6.894532-18.117187 0-25.011719 3.449218-3.449218 7.976562-5.175781 12.507812-5.175781 4.527344 0 9.058594 1.726563 12.507813 5.175781l60.039062 60.039063c3.339844 3.339844 5.179688 7.78125 5.179688 12.507813 0 4.722656-1.835938 9.167968-5.179688 12.507812zm0 0"/>
</svg>